<svg width="316" height="61" viewBox="0 0 316 61" fill="none" xmlns="http://www.w3.org/2000/svg">
<path d="M79.6757 41V15.8H83.5637V26.276H84.1397L93.5357 15.8H98.6117L87.2357 28.22L99.0077 41H93.7877L84.1397 30.308H83.5637V41H79.6757ZM109.721 41.504C107.945 41.504 106.361 41.144 104.969 40.424C103.601 39.68 102.521 38.624 101.729 37.256C100.937 35.888 100.541 34.268 100.541 32.396V31.856C100.541 29.984 100.937 28.376 101.729 27.032C102.521 25.664 103.601 24.608 104.969 23.864C106.361 23.12 107.945 22.748 109.721 22.748C111.497 22.748 113.081 23.12 114.473 23.864C115.865 24.608 116.957 25.664 117.749 27.032C118.541 28.376 118.937 29.984 118.937 31.856V32.396C118.937 34.268 118.541 35.888 117.749 37.256C116.957 38.624 115.865 39.68 114.473 40.424C113.081 41.144 111.497 41.504 109.721 41.504ZM109.721 38.192C111.353 38.192 112.673 37.676 113.681 36.644C114.713 35.588 115.229 34.136 115.229 32.288V31.964C115.229 30.116 114.725 28.676 113.717 27.644C112.709 26.588 111.377 26.06 109.721 26.06C108.113 26.06 106.793 26.588 105.761 27.644C104.753 28.676 104.249 30.116 104.249 31.964V32.288C104.249 34.136 104.753 35.588 105.761 36.644C106.793 37.676 108.113 38.192 109.721 38.192ZM130.825 41.504C128.569 41.504 126.697 41 125.209 39.992C123.721 38.984 122.809 37.46 122.473 35.42L125.929 34.592C126.121 35.576 126.445 36.356 126.901 36.932C127.357 37.508 127.921 37.916 128.593 38.156C129.289 38.396 130.033 38.516 130.825 38.516C132.001 38.516 132.901 38.288 133.525 37.832C134.173 37.376 134.497 36.788 134.497 36.068C134.497 35.348 134.197 34.82 133.597 34.484C132.997 34.148 132.109 33.872 130.933 33.656L129.709 33.44C128.509 33.224 127.417 32.912 126.433 32.504C125.449 32.096 124.669 31.532 124.093 30.812C123.517 30.092 123.229 29.168 123.229 28.04C123.229 26.36 123.853 25.064 125.101 24.152C126.349 23.216 128.005 22.748 130.069 22.748C132.061 22.748 133.693 23.204 134.965 24.116C136.261 25.004 137.101 26.216 137.485 27.752L134.029 28.724C133.813 27.644 133.357 26.888 132.661 26.456C131.965 26 131.101 25.772 130.069 25.772C129.061 25.772 128.269 25.964 127.693 26.348C127.117 26.708 126.829 27.224 126.829 27.896C126.829 28.616 127.105 29.144 127.657 29.48C128.233 29.816 129.001 30.068 129.961 30.236L131.221 30.452C132.493 30.668 133.657 30.968 134.713 31.352C135.769 31.736 136.597 32.288 137.197 33.008C137.821 33.728 138.133 34.688 138.133 35.888C138.133 37.664 137.473 39.044 136.153 40.028C134.833 41.012 133.057 41.504 130.825 41.504ZM142.467 41V23.252H146.175V41H142.467ZM144.339 20.84C143.619 20.84 143.007 20.612 142.503 20.156C142.023 19.676 141.783 19.064 141.783 18.32C141.783 17.576 142.023 16.976 142.503 16.52C143.007 16.04 143.619 15.8 144.339 15.8C145.083 15.8 145.695 16.04 146.175 16.52C146.655 16.976 146.895 17.576 146.895 18.32C146.895 19.064 146.655 19.676 146.175 20.156C145.695 20.612 145.083 20.84 144.339 20.84ZM160.746 41V15.8H168.234L175.074 38.408H175.65V15.8H179.502V41H172.014L165.174 18.356H164.598V41H160.746ZM193.002 41.504C191.202 41.504 189.63 41.132 188.286 40.388C186.942 39.62 185.886 38.552 185.118 37.184C184.374 35.792 184.002 34.184 184.002 32.36V31.928C184.002 30.08 184.374 28.472 185.118 27.104C185.862 25.712 186.894 24.644 188.214 23.9C189.558 23.132 191.106 22.748 192.858 22.748C194.562 22.748 196.05 23.132 197.322 23.9C198.618 24.644 199.626 25.688 200.346 27.032C201.066 28.376 201.426 29.948 201.426 31.748V33.152H187.782C187.83 34.712 188.346 35.96 189.33 36.896C190.338 37.808 191.586 38.264 193.074 38.264C194.466 38.264 195.51 37.952 196.206 37.328C196.926 36.704 197.478 35.984 197.862 35.168L200.922 36.752C200.586 37.424 200.094 38.132 199.446 38.876C198.822 39.62 197.994 40.244 196.962 40.748C195.93 41.252 194.61 41.504 193.002 41.504ZM187.818 30.308H197.646C197.55 28.964 197.07 27.92 196.206 27.176C195.342 26.408 194.214 26.024 192.822 26.024C191.43 26.024 190.29 26.408 189.402 27.176C188.538 27.92 188.01 28.964 187.818 30.308ZM216.149 41.504C214.421 41.504 213.089 41.192 212.153 40.568C211.241 39.944 210.557 39.248 210.101 38.48H209.525V41H205.889V15.8H209.597V25.664H210.173C210.461 25.184 210.845 24.728 211.325 24.296C211.805 23.84 212.441 23.468 213.233 23.18C214.025 22.892 214.997 22.748 216.149 22.748C217.637 22.748 219.005 23.108 220.253 23.828C221.501 24.548 222.497 25.592 223.241 26.96C223.985 28.328 224.357 29.96 224.357 31.856V32.396C224.357 34.316 223.973 35.96 223.205 37.328C222.461 38.672 221.465 39.704 220.217 40.424C218.993 41.144 217.637 41.504 216.149 41.504ZM215.069 38.264C216.677 38.264 217.997 37.748 219.029 36.716C220.085 35.684 220.613 34.208 220.613 32.288V31.964C220.613 30.068 220.097 28.604 219.065 27.572C218.033 26.54 216.701 26.024 215.069 26.024C213.485 26.024 212.165 26.54 211.109 27.572C210.077 28.604 209.561 30.068 209.561 31.964V32.288C209.561 34.208 210.077 35.684 211.109 36.716C212.165 37.748 213.485 38.264 215.069 38.264ZM237.268 41.504C235.492 41.504 233.908 41.144 232.516 40.424C231.148 39.68 230.068 38.624 229.276 37.256C228.484 35.888 228.088 34.268 228.088 32.396V31.856C228.088 29.984 228.484 28.376 229.276 27.032C230.068 25.664 231.148 24.608 232.516 23.864C233.908 23.12 235.492 22.748 237.268 22.748C239.044 22.748 240.628 23.12 242.02 23.864C243.412 24.608 244.504 25.664 245.296 27.032C246.088 28.376 246.484 29.984 246.484 31.856V32.396C246.484 34.268 246.088 35.888 245.296 37.256C244.504 38.624 243.412 39.68 242.02 40.424C240.628 41.144 239.044 41.504 237.268 41.504ZM237.268 38.192C238.9 38.192 240.22 37.676 241.228 36.644C242.26 35.588 242.776 34.136 242.776 32.288V31.964C242.776 30.116 242.272 28.676 241.264 27.644C240.256 26.588 238.924 26.06 237.268 26.06C235.66 26.06 234.34 26.588 233.308 27.644C232.3 28.676 231.796 30.116 231.796 31.964V32.288C231.796 34.136 232.3 35.588 233.308 36.644C234.34 37.676 235.66 38.192 237.268 38.192ZM251.1 41V15.8H254.808V41H251.1ZM260.311 41V23.252H264.019V41H260.311ZM262.183 20.84C261.463 20.84 260.851 20.612 260.347 20.156C259.867 19.676 259.627 19.064 259.627 18.32C259.627 17.576 259.867 16.976 260.347 16.52C260.851 16.04 261.463 15.8 262.183 15.8C262.927 15.8 263.539 16.04 264.019 16.52C264.499 16.976 264.739 17.576 264.739 18.32C264.739 19.064 264.499 19.676 264.019 20.156C263.539 20.612 262.927 20.84 262.183 20.84ZM276.794 41.504C274.538 41.504 272.666 41 271.178 39.992C269.69 38.984 268.778 37.46 268.442 35.42L271.898 34.592C272.09 35.576 272.414 36.356 272.87 36.932C273.326 37.508 273.89 37.916 274.562 38.156C275.258 38.396 276.002 38.516 276.794 38.516C277.97 38.516 278.87 38.288 279.494 37.832C280.142 37.376 280.466 36.788 280.466 36.068C280.466 35.348 280.166 34.82 279.566 34.484C278.966 34.148 278.078 33.872 276.902 33.656L275.678 33.44C274.478 33.224 273.386 32.912 272.402 32.504C271.418 32.096 270.638 31.532 270.062 30.812C269.486 30.092 269.198 29.168 269.198 28.04C269.198 26.36 269.822 25.064 271.07 24.152C272.318 23.216 273.974 22.748 276.038 22.748C278.03 22.748 279.662 23.204 280.934 24.116C282.23 25.004 283.07 26.216 283.454 27.752L279.998 28.724C279.782 27.644 279.326 26.888 278.63 26.456C277.934 26 277.07 25.772 276.038 25.772C275.03 25.772 274.238 25.964 273.662 26.348C273.086 26.708 272.798 27.224 272.798 27.896C272.798 28.616 273.074 29.144 273.626 29.48C274.202 29.816 274.97 30.068 275.93 30.236L277.19 30.452C278.462 30.668 279.626 30.968 280.682 31.352C281.738 31.736 282.566 32.288 283.166 33.008C283.79 33.728 284.102 34.688 284.102 35.888C284.102 37.664 283.442 39.044 282.122 40.028C280.802 41.012 279.026 41.504 276.794 41.504ZM293.803 41.504C292.531 41.504 291.391 41.288 290.383 40.856C289.399 40.424 288.607 39.788 288.007 38.948C287.431 38.108 287.143 37.088 287.143 35.888C287.143 34.664 287.431 33.656 288.007 32.864C288.607 32.048 289.411 31.436 290.419 31.028C291.451 30.62 292.615 30.416 293.911 30.416H299.311V29.264C299.311 28.232 298.999 27.404 298.375 26.78C297.751 26.156 296.791 25.844 295.495 25.844C294.223 25.844 293.251 26.144 292.579 26.744C291.907 27.344 291.463 28.124 291.247 29.084L287.791 27.968C288.079 27.008 288.535 26.144 289.159 25.376C289.807 24.584 290.659 23.948 291.715 23.468C292.771 22.988 294.043 22.748 295.531 22.748C297.835 22.748 299.647 23.336 300.967 24.512C302.287 25.688 302.947 27.356 302.947 29.516V36.824C302.947 37.544 303.283 37.904 303.955 37.904H305.467V41H302.695C301.855 41 301.171 40.784 300.643 40.352C300.115 39.92 299.851 39.332 299.851 38.588V38.48H299.311C299.119 38.84 298.831 39.26 298.447 39.74C298.063 40.22 297.499 40.64 296.755 41C296.011 41.336 295.027 41.504 293.803 41.504ZM294.343 38.444C295.831 38.444 297.031 38.024 297.943 37.184C298.855 36.32 299.311 35.144 299.311 33.656V33.296H294.127C293.143 33.296 292.351 33.512 291.751 33.944C291.151 34.352 290.851 34.964 290.851 35.78C290.851 36.596 291.163 37.244 291.787 37.724C292.411 38.204 293.263 38.444 294.343 38.444Z" fill="black"/>
<g filter="url(#filter0_d_7_185)">
<path d="M29.5477 0L39.3061 24.675L55.0955 45.75L29.5477 42.15L3.99998 45.75L19.7894 24.675L29.5477 0Z" fill="#D9D9D9"/>
<path d="M29.5477 0L39.3061 24.675L55.0955 45.75L29.5477 42.15L3.99998 45.75L19.7894 24.675L29.5477 0Z" fill="url(#paint0_linear_7_185)"/>
</g>
<defs>
<filter id="filter0_d_7_185" x="0" y="0" width="59.0955" height="53.75" filterUnits="userSpaceOnUse" color-interpolation-filters="sRGB">
<feFlood flood-opacity="0" result="BackgroundImageFix"/>
<feColorMatrix in="SourceAlpha" type="matrix" values="0 0 0 0 0 0 0 0 0 0 0 0 0 0 0 0 0 0 127 0" result="hardAlpha"/>
<feOffset dy="4"/>
<feGaussianBlur stdDeviation="2"/>
<feComposite in2="hardAlpha" operator="out"/>
<feColorMatrix type="matrix" values="0 0 0 0 0 0 0 0 0 0 0 0 0 0 0 0 0 0 0.25 0"/>
<feBlend mode="normal" in2="BackgroundImageFix" result="effect1_dropShadow_7_185"/>
<feBlend mode="normal" in="SourceGraphic" in2="effect1_dropShadow_7_185" result="shape"/>
</filter>
<linearGradient id="paint0_linear_7_185" x1="29.5477" y1="0" x2="29.5477" y2="61" gradientUnits="userSpaceOnUse">
<stop offset="0.153846"/>
<stop offset="1" stop-color="#8A38F5"/>
</linearGradient>
</defs>
</svg>
